<?xml version="1.0" standalone="no"?><!DOCTYPE svg PUBLIC "-//W3C//DTD SVG 1.1//EN" "http://www.w3.org/Graphics/SVG/1.1/DTD/svg11.dtd"><svg t="1604567078223" class="icon" viewBox="0 0 1024 1024" version="1.1" xmlns="http://www.w3.org/2000/svg" p-id="2876" xmlns:xlink="http://www.w3.org/1999/xlink" width="128" height="128"><defs><style type="text/css"></style></defs><path d="M939 537c0 8.284-5.373 15-12 15H97c-6.627 0-12-6.716-12-15v-50c0-8.284 5.373-15 12-15h830c6.627 0 12 6.716 12 15v50z" fill="#666666" p-id="2877"></path><path d="M537 85c8.284 0 15 5.373 15 12v830c0 6.628-6.716 12-15 12h-50c-8.285 0-15-5.372-15-12V97c0-6.627 6.715-12 15-12h50z" fill="#666666" p-id="2878"></path></svg>